<svg width="36" height="135" viewBox="0 0 36 135" fill="none" xmlns="http://www.w3.org/2000/svg">
<path d="M30.9381 63.9402L32.2429 63.2004L30.9381 63.9402ZM21.2093 134.061C21.7951 134.646 22.7449 134.646 23.3307 134.061L32.8766 124.515C33.4624 123.929 33.4624 122.979 32.8766 122.393C32.2908 121.808 31.3411 121.808 30.7553 122.393L22.27 130.879L13.7847 122.393C13.1989 121.808 12.2492 121.808 11.6634 122.393C11.0776 122.979 11.0776 123.929 11.6634 124.515L21.2093 134.061ZM21.7428 0.595714C10.2453 4.91243 3.95559 9.98514 1.58883 15.7653C-0.80299 21.6067 1.01457 27.6465 4.387 33.3346C7.76411 39.0307 12.9045 44.7183 17.7322 50.0161C22.6325 55.3936 27.1626 60.3228 29.6332 64.6801L32.2429 63.2004C29.5665 58.4801 24.7507 53.264 19.9497 47.9955C15.076 42.6473 10.1595 37.1884 6.96754 31.8046C3.77087 26.413 2.50713 21.4397 4.36511 16.9021C6.24817 12.3032 11.5394 7.63105 22.7972 3.40429L21.7428 0.595714ZM29.6332 64.6801C32.0102 68.8721 32.7506 74.0796 32.4288 79.9374C32.1072 85.7899 30.7339 92.1563 29.0154 98.5693C28.1576 101.771 27.2188 104.966 26.2888 108.103C25.3606 111.233 24.4393 114.312 23.6263 117.252C22.0097 123.097 20.77 128.562 20.77 133H23.77C23.77 129.011 24.9006 123.899 26.5177 118.052C27.3215 115.145 28.2329 112.099 29.165 108.955C30.0952 105.818 31.0441 102.589 31.9132 99.3459C33.6485 92.8702 35.0856 86.2666 35.4242 80.102C35.7626 73.9426 35.013 68.0857 32.2429 63.2004L29.6332 64.6801Z" fill="url(#paint0_linear_52_279)"/>
<defs>
<linearGradient id="paint0_linear_52_279" x1="18" y1="131" x2="18" y2="2" gradientUnits="userSpaceOnUse">
<stop stop-color="#E00167"/>
<stop offset="1" stop-color="#E617E6"/>
</linearGradient>
</defs>
</svg>
