<svg width="124" height="50" viewBox="0 0 124 50" fill="none" xmlns="http://www.w3.org/2000/svg">
<g clip-path="url(#clip0_18_7)">
<path d="M5.26424 16.0459C4.15243 15.2244 4.18944 13.5496 5.33644 12.778L21.0713 2.19273C21.7479 1.73755 22.6331 1.73875 23.3085 2.19577L38.975 12.797C40.1149 13.5683 40.1532 15.2337 39.0499 16.0566L23.433 27.704C22.7263 28.2311 21.7578 28.2333 21.0487 27.7093L5.26424 16.0459Z" fill="url(#paint0_linear_18_7)"/>
<path d="M23.7095 31.5502C23.7207 30.9289 24.0201 30.3482 24.5195 29.9787L39.6053 18.8163C40.9254 17.8396 42.7949 18.7819 42.7949 20.424L42.7949 34.6474C42.7949 35.286 42.49 35.8861 41.9744 36.2627L26.63 47.4672C25.2951 48.4421 23.421 47.4685 23.4509 45.8158L23.7095 31.5502Z" fill="url(#paint1_linear_18_7)"/>
<path d="M2.45888 36.3278C1.95377 35.9535 1.65405 35.3635 1.64966 34.7348L1.54531 19.7811C1.5337 18.1161 3.44272 17.1668 4.76332 18.1808L20.2913 30.1041C20.7843 30.4826 21.0733 31.0688 21.0733 31.6904L21.0734 46.15C21.0734 47.7928 19.2025 48.735 17.8826 47.7569L2.45888 36.3278Z" fill="url(#paint2_linear_18_7)"/>
<path d="M50.972 38V25.436H55.202C56.15 25.436 56.996 25.586 57.74 25.886C58.496 26.174 59.138 26.594 59.666 27.146C60.194 27.686 60.596 28.34 60.872 29.108C61.148 29.876 61.286 30.734 61.286 31.682C61.286 32.642 61.148 33.512 60.872 34.292C60.596 35.06 60.194 35.726 59.666 36.29C59.138 36.842 58.496 37.268 57.74 37.568C56.996 37.856 56.15 38 55.202 38H50.972ZM53.942 35.57H55.202C55.85 35.57 56.396 35.414 56.84 35.102C57.296 34.778 57.638 34.322 57.866 33.734C58.106 33.146 58.226 32.462 58.226 31.682C58.226 30.902 58.106 30.23 57.866 29.666C57.638 29.09 57.296 28.646 56.84 28.334C56.396 28.022 55.85 27.866 55.202 27.866H53.942V35.57ZM65.579 38V26.832H68.219V38H65.579ZM63.019 26.832H70.779V28.992H63.019V26.832ZM63.019 35.84H70.779V38H63.019V35.84ZM77.3293 38.192C76.3373 38.192 75.4733 37.952 74.7373 37.472C74.0119 36.9813 73.4466 36.304 73.0413 35.44C72.6359 34.576 72.4333 33.568 72.4333 32.416C72.4333 31.264 72.6359 30.256 73.0413 29.392C73.4466 28.5173 74.0279 27.84 74.7853 27.36C75.5533 26.88 76.4653 26.64 77.5213 26.64C78.2893 26.64 78.9986 26.7947 79.6493 27.104C80.3106 27.4027 80.8546 27.8453 81.2813 28.432C81.7079 29.0187 81.9426 29.7333 81.9853 30.576H79.0893C79.0466 30.0747 78.8813 29.6533 78.5933 29.312C78.3159 28.9707 77.9373 28.8 77.4573 28.8C77.0093 28.8 76.6093 28.944 76.2573 29.232C75.9159 29.5093 75.6439 29.9147 75.4413 30.448C75.2493 30.9813 75.1533 31.6373 75.1533 32.416C75.1533 33.184 75.2546 33.84 75.4573 34.384C75.6599 34.9173 75.9426 35.328 76.3053 35.616C76.6786 35.8933 77.1053 36.032 77.5853 36.032C77.9799 36.032 78.3159 35.9787 78.5933 35.872C78.8706 35.7547 79.1373 35.584 79.3933 35.36V34.096L77.9053 34.176L77.9853 31.984H81.9853V36.096C81.5053 36.7467 80.8813 37.2587 80.1133 37.632C79.3559 38.0053 78.4279 38.192 77.3293 38.192ZM86.3915 38V26.832H89.0315V38H86.3915ZM83.8315 26.832H91.5915V28.992H83.8315V26.832ZM83.8315 35.84H91.5915V38H83.8315V35.84ZM96.7978 38V28.992H93.5338V26.832H102.702V28.992H99.4378V38H96.7978ZM105.412 35.856V33.696H111.988V35.856H105.412ZM106.548 26.832H110.5L113.332 38H110.644L109.188 31.664L108.516 28.688L107.828 31.664L106.34 38H103.732L106.548 26.832ZM115.066 38V26.832H117.706V35.84H123.114V38H115.066Z" fill="#FCFFE7"/>
<path d="M55.58 27.24C54.4333 27.24 53.4467 27.0267 52.62 26.6C51.8067 26.16 51.18 25.5467 50.74 24.76C50.3133 23.96 50.1 23.02 50.1 21.94H53.34C53.34 22.78 53.52 23.4267 53.88 23.88C54.2533 24.32 54.82 24.54 55.58 24.54C56.18 24.54 56.6533 24.4133 57 24.16C57.36 23.8933 57.54 23.52 57.54 23.04C57.54 22.68 57.4067 22.4 57.14 22.2C56.8867 21.9867 56.54 21.8133 56.1 21.68C55.6733 21.5333 55.2 21.4 54.68 21.28C54.1733 21.1467 53.66 20.9867 53.14 20.8C52.6333 20.6133 52.16 20.3667 51.72 20.06C51.2933 19.7533 50.9467 19.3533 50.68 18.86C50.4267 18.3667 50.3 17.74 50.3 16.98C50.3 16.1933 50.5133 15.4867 50.94 14.86C51.38 14.2333 51.9867 13.7333 52.76 13.36C53.5333 12.9867 54.44 12.8 55.48 12.8C56.4267 12.8 57.3067 12.9867 58.12 13.36C58.9333 13.72 59.5933 14.2467 60.1 14.94C60.6067 15.6333 60.8733 16.4867 60.9 17.5H57.6C57.5733 17.0467 57.4533 16.6733 57.24 16.38C57.04 16.0867 56.78 15.8667 56.46 15.72C56.1533 15.5733 55.8267 15.5 55.48 15.5C54.9867 15.5 54.5667 15.62 54.22 15.86C53.8733 16.0867 53.7 16.4267 53.7 16.88C53.7 17.2267 53.8267 17.5 54.08 17.7C54.3467 17.9 54.6933 18.0667 55.12 18.2C55.56 18.32 56.0333 18.44 56.54 18.56C57.06 18.68 57.5733 18.8333 58.08 19.02C58.6 19.1933 59.0733 19.44 59.5 19.76C59.94 20.08 60.2867 20.5067 60.54 21.04C60.8067 21.56 60.94 22.2267 60.94 23.04C60.94 23.8533 60.7067 24.58 60.24 25.22C59.7867 25.8467 59.1533 26.34 58.34 26.7C57.54 27.06 56.62 27.24 55.58 27.24ZM67.6238 27.216C66.5918 27.216 65.6738 26.958 64.8698 26.442C64.0778 25.914 63.4538 25.164 62.9978 24.192C62.5538 23.22 62.3318 22.062 62.3318 20.718C62.3318 19.362 62.5538 18.198 62.9978 17.226C63.4538 16.254 64.0778 15.51 64.8698 14.994C65.6738 14.478 66.5978 14.22 67.6418 14.22C68.6978 14.22 69.6218 14.478 70.4138 14.994C71.2178 15.51 71.8418 16.254 72.2858 17.226C72.7298 18.186 72.9518 19.35 72.9518 20.718C72.9518 21.306 72.8798 21.888 72.7358 22.464C72.6038 23.028 72.4178 23.55 72.1778 24.03C71.9378 24.498 71.6558 24.894 71.3318 25.218L72.6278 24.84L73.7078 24.768L73.2218 27.216H67.6238ZM67.6418 24.786C68.0858 24.786 68.4698 24.63 68.7938 24.318C69.1178 23.994 69.3698 23.526 69.5498 22.914C69.7418 22.302 69.8378 21.57 69.8378 20.718C69.8378 19.842 69.7418 19.104 69.5498 18.504C69.3698 17.904 69.1178 17.448 68.7938 17.136C68.4698 16.812 68.0858 16.65 67.6418 16.65C67.2098 16.65 66.8258 16.806 66.4898 17.118C66.1658 17.43 65.9078 17.892 65.7158 18.504C65.5358 19.104 65.4458 19.842 65.4458 20.718C65.4458 21.582 65.5358 22.32 65.7158 22.932C65.9078 23.532 66.1658 23.994 66.4898 24.318C66.8258 24.63 67.2098 24.786 67.6418 24.786ZM79.5648 27.216C78.4728 27.216 77.5428 27.024 76.7748 26.64C76.0068 26.244 75.4188 25.692 75.0108 24.984C74.6028 24.276 74.3988 23.448 74.3988 22.5V14.436H77.3688V22.5C77.3688 22.968 77.4588 23.37 77.6388 23.706C77.8188 24.042 78.0708 24.306 78.3948 24.498C78.7308 24.678 79.1208 24.768 79.5648 24.768C80.0208 24.768 80.4108 24.678 80.7348 24.498C81.0588 24.306 81.3108 24.042 81.4908 23.706C81.6708 23.37 81.7608 22.968 81.7608 22.5V14.436H84.7308V22.5C84.7308 23.448 84.5268 24.276 84.1188 24.984C83.7108 25.692 83.1228 26.244 82.3548 26.64C81.5868 27.024 80.6568 27.216 79.5648 27.216ZM87.7619 24.588V22.158H95.1599V24.588H87.7619ZM89.0399 14.436H93.4859L96.6719 27H93.6479L92.0099 19.872L91.2539 16.524L90.4799 19.872L88.8059 27H85.8719L89.0399 14.436ZM100.387 22.302V19.872H103.213C103.573 19.872 103.885 19.806 104.149 19.674C104.425 19.542 104.635 19.356 104.779 19.116C104.935 18.876 105.013 18.606 105.013 18.306C105.013 18.018 104.941 17.766 104.797 17.55C104.665 17.334 104.479 17.166 104.239 17.046C103.999 16.926 103.723 16.866 103.411 16.866H100.387V14.436H103.411C104.323 14.436 105.127 14.592 105.823 14.904C106.531 15.204 107.083 15.642 107.479 16.218C107.875 16.794 108.073 17.49 108.073 18.306C108.073 18.798 107.953 19.284 107.713 19.764C107.485 20.232 107.149 20.658 106.705 21.042C106.273 21.426 105.745 21.732 105.121 21.96C104.509 22.188 103.813 22.302 103.033 22.302H100.387ZM98.2449 27V14.436H101.215V27H98.2449ZM105.085 27C105.085 26.472 104.989 25.938 104.797 25.398C104.605 24.846 104.323 24.324 103.951 23.832C103.591 23.328 103.141 22.872 102.601 22.464C102.061 22.056 101.437 21.726 100.729 21.474L104.023 20.808C104.719 21.156 105.325 21.57 105.841 22.05C106.357 22.53 106.783 23.046 107.119 23.598C107.467 24.15 107.725 24.72 107.893 25.308C108.061 25.884 108.145 26.448 108.145 27H105.085ZM110.15 27V14.436H119.456V16.866H113.12V19.296H117.206V21.726H113.12V24.57H119.528V27H110.15Z" fill="url(#paint3_linear_18_7)"/>
</g>
<defs>
<linearGradient id="paint0_linear_18_7" x1="15.2927" y1="5.18036" x2="28.9966" y2="23.5545" gradientUnits="userSpaceOnUse">
<stop stop-color="#E00167"/>
<stop offset="1" stop-color="#E617E6"/>
</linearGradient>
<linearGradient id="paint1_linear_18_7" x1="28.5027" y1="27.0032" x2="37.7615" y2="39.4175" gradientUnits="userSpaceOnUse">
<stop stop-color="#E00167"/>
<stop offset="1" stop-color="#E617E6"/>
</linearGradient>
<linearGradient id="paint2_linear_18_7" x1="-0.556721" y1="17.2343" x2="22.9354" y2="48.7326" gradientUnits="userSpaceOnUse">
<stop stop-color="#E00167"/>
<stop offset="1" stop-color="#E617E6"/>
</linearGradient>
<linearGradient id="paint3_linear_18_7" x1="49" y1="19" x2="118" y2="20.5" gradientUnits="userSpaceOnUse">
<stop stop-color="#E00167"/>
<stop offset="1" stop-color="#E617E6"/>
<stop offset="1" stop-color="#D9D9D9" stop-opacity="0"/>
</linearGradient>
<clipPath id="clip0_18_7">
<rect width="124" height="50" fill="white"/>
</clipPath>
</defs>
</svg>
